<svg width="24" height="24" viewBox="0 0 24 24" fill="none" xmlns="http://www.w3.org/2000/svg">
<path d="M5.84615 12.0005V7.95453C5.85817 7.15923 6.027 6.37412 6.34298 5.64418C6.65896 4.91424 7.11587 4.25383 7.68754 3.70077C8.2592 3.14771 8.93438 2.71288 9.67439 2.4212C10.4144 2.12952 11.2047 1.98671 12 2.00097C12.7953 1.98671 13.5856 2.12952 14.3256 2.4212C15.0656 2.71288 15.7408 3.14771 16.3125 3.70077C16.8841 4.25383 17.341 4.91424 17.657 5.64418C17.973 6.37412 18.1418 7.15923 18.1538 7.95453V12.0005M15.0769 20.077C15.893 20.077 16.6756 19.7529 17.2526 19.1758C17.8297 18.5988 18.1538 17.8163 18.1538 17.0002V13.5389M15.0769 20.077C15.0769 20.587 14.8743 21.0761 14.5137 21.4368C14.153 21.7974 13.6639 22 13.1538 22H10.8462C10.3361 22 9.84698 21.7974 9.48633 21.4368C9.12569 21.0761 8.92308 20.587 8.92308 20.077C8.92308 19.567 9.12569 19.0779 9.48633 18.7173C9.84698 18.3566 10.3361 18.154 10.8462 18.154H13.1538C13.6639 18.154 14.153 18.3566 14.5137 18.7173C14.8743 19.0779 15.0769 19.567 15.0769 20.077ZM3.53846 9.69291H5.07692C5.28094 9.69291 5.47659 9.77395 5.62085 9.9182C5.76511 10.0624 5.84615 10.2581 5.84615 10.4621V15.0773C5.84615 15.2813 5.76511 15.4769 5.62085 15.6212C5.47659 15.7654 5.28094 15.8465 5.07692 15.8465H3.53846C3.13044 15.8465 2.73912 15.6844 2.4506 15.3959C2.16209 15.1074 2 14.7161 2 14.3081V11.2313C2 10.8233 2.16209 10.432 2.4506 10.1435C2.73912 9.85499 3.13044 9.69291 3.53846 9.69291ZM20.4615 15.8465H18.9231C18.7191 15.8465 18.5234 15.7654 18.3791 15.6212C18.2349 15.4769 18.1538 15.2813 18.1538 15.0773V10.4621C18.1538 10.2581 18.2349 10.0624 18.3791 9.9182C18.5234 9.77395 18.7191 9.69291 18.9231 9.69291H20.4615C20.8696 9.69291 21.2609 9.85499 21.5494 10.1435C21.8379 10.432 22 10.8233 22 11.2313V14.3081C22 14.7161 21.8379 15.1074 21.5494 15.3959C21.2609 15.6844 20.8696 15.8465 20.4615 15.8465Z" stroke="#6882B6" stroke-width="2" stroke-linecap="round" stroke-linejoin="round"/>
</svg>
