<svg width="173" height="39" viewBox="0 0 173 39" fill="none" xmlns="http://www.w3.org/2000/svg">
<path fill-rule="evenodd" clip-rule="evenodd" d="M13.8704 4C8.43721 4 4 8.44531 4 13.8704C4 19.3035 8.44531 23.7407 13.8704 23.7407V4Z" fill="#4169E1"/>
<path fill-rule="evenodd" clip-rule="evenodd" d="M14.8828 11.6436C20.316 11.6436 24.7532 16.0889 24.7532 21.5139H14.8828V11.6436Z" fill="#4169E1"/>
<path fill-rule="evenodd" clip-rule="evenodd" d="M14.8828 22.5264C20.316 22.5264 24.7532 26.9717 24.7532 32.3967H14.8828V22.5264Z" fill="#4169E1"/>
<path fill-rule="evenodd" clip-rule="evenodd" d="M13.8704 34.6233C8.43721 34.6233 4 30.178 4 24.7529H13.8704V34.6233Z" fill="#4169E1"/>
<path d="M39.7891 30.9877C38.9389 30.9877 38.113 30.8743 37.3276 30.6557C36.5422 30.429 35.8134 30.1132 35.1495 29.6921C34.4855 29.2792 33.9106 28.7691 33.4248 28.1699L35.6677 25.927C36.2021 26.5424 36.8175 27.012 37.5057 27.3197C38.2021 27.6274 38.9794 27.7812 39.8539 27.7812C40.6393 27.7812 41.2385 27.6679 41.6434 27.433C42.0482 27.1982 42.2506 26.8581 42.2506 26.4128C42.2506 25.9432 42.0563 25.5788 41.6757 25.3278C41.2952 25.0687 40.7932 24.8501 40.1859 24.6719C39.5786 24.4938 38.9389 24.3076 38.2669 24.1132C37.5948 23.9189 36.9551 23.6598 36.3479 23.3278C35.7406 22.9958 35.2467 22.5424 34.858 21.9675C34.4774 21.3926 34.2831 20.6477 34.2831 19.7246C34.2831 18.7448 34.5098 17.9027 34.9714 17.1983C35.4329 16.4939 36.0807 15.9513 36.9228 15.5627C37.7648 15.1821 38.777 14.9878 39.943 14.9878C41.1818 14.9878 42.2749 15.2064 43.2223 15.6437C44.1697 16.0809 44.9632 16.7368 45.6028 17.6113L43.3599 19.8541C42.9146 19.2955 42.3964 18.8825 41.8215 18.6072C41.2466 18.3319 40.5826 18.1942 39.8377 18.1942C39.1333 18.1942 38.5908 18.2995 38.2021 18.5181C37.8215 18.7287 37.6272 19.0444 37.6272 19.4493C37.6272 19.8784 37.8215 20.2104 38.2021 20.4452C38.5827 20.6801 39.0847 20.8825 39.692 21.0525C40.2992 21.2226 40.9389 21.4088 41.611 21.6112C42.283 21.8136 42.9227 22.089 43.53 22.4452C44.1373 22.8015 44.6312 23.263 45.0199 23.8541C45.4004 24.4371 45.5947 25.2063 45.5947 26.1456C45.5947 27.6355 45.0684 28.8257 44.0239 29.7002C42.9794 30.5747 41.5624 31.012 39.7648 31.012L39.7891 30.9877Z" fill="#000080"/>
<path d="M54.8259 30.9876C53.5466 30.9876 52.3968 30.6961 51.3684 30.1212C50.3482 29.5463 49.5466 28.7528 48.9879 27.7568C48.4211 26.7528 48.1377 25.5787 48.1377 24.2346V15.3035H51.6599V24.0727C51.6599 24.8176 51.7814 25.4573 52.0243 25.9755C52.2672 26.5018 52.6316 26.8986 53.1093 27.1739C53.587 27.4492 54.1619 27.5868 54.8178 27.5868C55.838 27.5868 56.6235 27.2791 57.166 26.6718C57.7085 26.0646 57.9838 25.1982 57.9838 24.0646V15.2954H61.506V24.2265C61.506 25.5706 61.2226 26.7528 60.6558 27.7649C60.089 28.7771 59.3036 29.5706 58.2915 30.1293C57.2793 30.6961 56.1214 30.9795 54.8178 30.9795L54.8259 30.9876Z" fill="#000080"/>
<path d="M73.295 30.9878C72.1209 30.9878 71.0764 30.7368 70.1614 30.2347C69.2465 29.7327 68.5258 29.0445 67.9995 28.17C67.4732 27.2955 67.2141 26.2996 67.2141 25.1903V20.7773C67.2141 19.668 67.4813 18.6721 68.0157 17.7976C68.5501 16.9231 69.2708 16.2349 70.1938 15.7328C71.1088 15.2308 72.1452 14.9798 73.295 14.9798C74.6796 14.9798 75.9347 15.3361 77.0521 16.0486C78.1695 16.7612 79.0601 17.7247 79.7079 18.9312C80.3557 20.1377 80.6877 21.498 80.6877 23.0121C80.6877 24.502 80.3638 25.8542 79.7079 27.0607C79.0601 28.2672 78.1695 29.2226 77.0521 29.9271C75.9347 30.6315 74.6796 30.9797 73.295 30.9797V30.9878ZM72.7201 27.6599C73.5703 27.6599 74.3233 27.4655 74.9792 27.0688C75.627 26.672 76.1452 26.1214 76.5177 25.417C76.8901 24.7125 77.0764 23.9028 77.0764 22.9878C77.0764 22.0729 76.8901 21.2632 76.5177 20.5587C76.1452 19.8543 75.6351 19.3037 74.9792 18.9069C74.3314 18.5101 73.5784 18.3158 72.7201 18.3158C71.8699 18.3158 71.1088 18.5101 70.4448 18.9069C69.7809 19.3037 69.2708 19.8543 68.9064 20.5587C68.542 21.2632 68.3639 22.0729 68.3639 22.9878C68.3639 23.9028 68.542 24.7125 68.9064 25.417C69.2708 26.1214 69.7809 26.672 70.4448 27.0688C71.1088 27.4655 71.8618 27.6599 72.7201 27.6599ZM65.0684 30.672V7.63574H68.5906V19.0931L67.9833 22.8016L68.5906 26.5425V30.672H65.0684Z" fill="#000080"/>
<path d="M88.6553 30.9877C87.8051 30.9877 86.9792 30.8743 86.1938 30.6557C85.4084 30.429 84.6797 30.1132 84.0157 29.6921C83.3517 29.2792 82.7768 28.7691 82.291 28.1699L84.5339 25.927C85.0683 26.5424 85.6837 27.012 86.372 27.3197C87.0683 27.6274 87.8456 27.7812 88.7201 27.7812C89.5055 27.7812 90.1047 27.6679 90.5096 27.433C90.9144 27.1982 91.1168 26.8581 91.1168 26.4128C91.1168 25.9432 90.9225 25.5788 90.542 25.3278C90.1614 25.0687 89.6594 24.8501 89.0521 24.6719C88.4448 24.4938 87.8051 24.3076 87.1331 24.1132C86.461 23.9189 85.8214 23.6598 85.2141 23.3278C84.6068 22.9958 84.1129 22.5424 83.7242 21.9675C83.3436 21.3926 83.1493 20.6477 83.1493 19.7246C83.1493 18.7448 83.376 17.9027 83.8376 17.1983C84.2991 16.4939 84.9469 15.9513 85.789 15.5627C86.6311 15.1821 87.6432 14.9878 88.8092 14.9878C90.048 14.9878 91.1411 15.2064 92.0885 15.6437C93.0359 16.0809 93.8294 16.7368 94.4691 17.6113L92.2262 19.8541C91.7808 19.2955 91.2626 18.8825 90.6877 18.6072C90.1128 18.3319 89.4489 18.1942 88.7039 18.1942C87.9995 18.1942 87.457 18.2995 87.0683 18.5181C86.6877 18.7287 86.4934 19.0444 86.4934 19.4493C86.4934 19.8784 86.6877 20.2104 87.0683 20.4452C87.4489 20.6801 87.9509 20.8825 88.5582 21.0525C89.1655 21.2226 89.8051 21.4088 90.4772 21.6112C91.1492 21.8136 91.7889 22.089 92.3962 22.4452C93.0035 22.8015 93.4974 23.263 93.8861 23.8541C94.2666 24.4371 94.461 25.2063 94.461 26.1456C94.461 27.6355 93.9346 28.8257 92.8901 29.7002C91.8456 30.5747 90.4286 31.012 88.631 31.012L88.6553 30.9877Z" fill="#000080"/>
<path d="M103.364 30.9877C102.514 30.9877 101.688 30.8743 100.903 30.6557C100.117 30.429 99.3886 30.1132 98.7247 29.6921C98.0607 29.2792 97.4858 28.7691 97 28.1699L99.2429 25.927C99.7773 26.5424 100.393 27.012 101.081 27.3197C101.777 27.6274 102.555 27.7812 103.429 27.7812C104.215 27.7812 104.814 27.6679 105.219 27.433C105.623 27.1982 105.826 26.8581 105.826 26.4128C105.826 25.9432 105.632 25.5788 105.251 25.3278C104.87 25.0687 104.368 24.8501 103.761 24.6719C103.154 24.4938 102.514 24.3076 101.842 24.1132C101.17 23.9189 100.53 23.6598 99.9231 23.3278C99.3158 22.9958 98.8218 22.5424 98.4332 21.9675C98.0526 21.3926 97.8583 20.6477 97.8583 19.7246C97.8583 18.7448 98.085 17.9027 98.5465 17.1983C99.0081 16.4939 99.6558 15.9513 100.498 15.5627C101.34 15.1821 102.352 14.9878 103.518 14.9878C104.757 14.9878 105.85 15.2064 106.797 15.6437C107.745 16.0809 108.538 16.7368 109.178 17.6113L106.935 19.8541C106.49 19.2955 105.972 18.8825 105.397 18.6072C104.822 18.3319 104.158 18.1942 103.413 18.1942C102.708 18.1942 102.166 18.2995 101.777 18.5181C101.397 18.7287 101.202 19.0444 101.202 19.4493C101.202 19.8784 101.397 20.2104 101.777 20.4452C102.158 20.6801 102.66 20.8825 103.267 21.0525C103.874 21.2226 104.514 21.4088 105.186 21.6112C105.858 21.8136 106.498 22.089 107.105 22.4452C107.712 22.8015 108.206 23.263 108.595 23.8541C108.976 24.4371 109.17 25.2063 109.17 26.1456C109.17 27.6355 108.644 28.8257 107.599 29.7002C106.555 30.5747 105.138 31.012 103.34 31.012L103.364 30.9877Z" fill="#000080"/>
<path d="M119.688 30.9876C118.409 30.9876 117.259 30.6961 116.231 30.1212C115.211 29.5463 114.409 28.7528 113.85 27.7568C113.283 26.7528 113 25.5787 113 24.2346V15.3035H116.522V24.0727C116.522 24.8176 116.644 25.4573 116.887 25.9755C117.13 26.5018 117.494 26.8986 117.972 27.1739C118.449 27.4492 119.024 27.5868 119.68 27.5868C120.7 27.5868 121.486 27.2791 122.028 26.6718C122.571 26.0646 122.846 25.1982 122.846 24.0646V15.2954H126.368V24.2265C126.368 25.5706 126.085 26.7528 125.518 27.7649C124.951 28.7771 124.166 29.5706 123.154 30.1293C122.142 30.6961 120.984 30.9795 119.68 30.9795L119.688 30.9876Z" fill="#000080"/>
<path d="M129.932 30.6719V15.3117H133.454V30.6719H129.932ZM140.142 30.6719V21.5222C140.142 20.5019 139.826 19.7003 139.179 19.1416C138.539 18.5748 137.753 18.2914 136.814 18.2914C136.175 18.2914 135.6 18.421 135.106 18.672C134.604 18.9311 134.207 19.2954 133.907 19.7732C133.608 20.2509 133.462 20.8339 133.462 21.5141L132.085 20.7448C132.085 19.5708 132.345 18.5586 132.855 17.7084C133.365 16.8582 134.061 16.1862 134.936 15.7084C135.81 15.2307 136.79 14.9878 137.883 14.9878C138.968 14.9878 139.956 15.2226 140.83 15.6922C141.705 16.1619 142.401 16.8258 142.911 17.676C143.421 18.5262 143.681 19.5546 143.681 20.7448V30.6638H140.158L140.142 30.6719ZM150.353 30.6719V21.5222C150.353 20.5019 150.037 19.7003 149.389 19.1416C148.749 18.5748 147.956 18.2914 147.025 18.2914C146.409 18.2914 145.842 18.421 145.332 18.672C144.822 18.9311 144.417 19.2954 144.118 19.7732C143.818 20.2509 143.672 20.8339 143.672 21.5141L141.689 20.7448C141.794 19.5708 142.134 18.5586 142.709 17.7084C143.284 16.8582 144.029 16.1862 144.936 15.7084C145.842 15.2307 146.838 14.9878 147.931 14.9878C149.041 14.9878 150.045 15.2226 150.936 15.6922C151.834 16.1619 152.547 16.8258 153.081 17.676C153.616 18.5262 153.883 19.5546 153.883 20.7448V30.6638H150.361L150.353 30.6719Z" fill="#000080"/>
</svg>
