<svg width="54" height="40" viewBox="0 0 54 40" fill="none" xmlns="http://www.w3.org/2000/svg">
<rect width="54" height="40" rx="7" fill="#006E53"/>
<path fill-rule="evenodd" clip-rule="evenodd" d="M22.1473 31.0383C22.5065 31.0383 22.7689 31.1143 22.9347 31.2665C23.1004 31.4186 23.1834 31.6552 23.1836 31.9763V33.6971H22.6449V32.0491C22.6449 31.6862 22.4414 31.5047 22.0345 31.5047C21.8587 31.5033 21.6861 31.5518 21.5369 31.6447C21.5627 31.7533 21.5749 31.8647 21.573 31.9763V33.6971H21.0343V32.0491C21.0343 31.6862 20.8309 31.5047 20.4239 31.5047C20.2382 31.5049 20.0541 31.5383 19.8802 31.6033V33.6971H19.3417V31.3079C19.52 31.2193 19.7087 31.1534 19.9034 31.1119C20.1111 31.0635 20.3235 31.0383 20.5368 31.0369C20.8728 31.0369 21.1224 31.1022 21.2858 31.2329C21.5548 31.1043 21.8492 31.0378 22.1473 31.0383ZM25.0294 33.7761C24.6187 33.7761 24.31 33.6586 24.1034 33.4236C23.8968 33.1886 23.7933 32.8465 23.7932 32.3974C23.7932 31.4885 24.2038 31.0342 25.0252 31.0343C25.439 31.0343 25.7502 31.1509 25.9587 31.3841C26.1672 31.6172 26.2715 31.955 26.2717 32.3974C26.2717 32.8394 26.164 33.1797 25.9486 33.4183C25.7332 33.6568 25.4268 33.7761 25.0294 33.7761ZM25.024 33.3147C25.4961 33.3147 25.7321 33.0089 25.7319 32.3974C25.7319 32.0933 25.6759 31.8661 25.5639 31.7159C25.4519 31.5656 25.2723 31.4904 25.0252 31.4902C24.7756 31.4902 24.5969 31.5671 24.4892 31.7209C24.3815 31.8747 24.3277 32.1002 24.3277 32.3974C24.3277 32.6944 24.3832 32.9215 24.4943 33.0789C24.6053 33.2363 24.7819 33.3145 25.024 33.3135V33.3147ZM28.0702 31.0394C28.4532 31.0394 28.7438 31.1551 28.9421 31.3866C29.1403 31.618 29.2397 31.9459 29.2403 32.3702C29.2403 32.8817 29.1215 33.2436 28.8838 33.4561C28.6462 33.6685 28.3442 33.7752 27.9778 33.7761C27.2425 33.7761 26.8748 33.5792 26.8748 33.1853V30.0535H27.4085V31.2001C27.5158 31.1488 27.6285 31.1097 27.7445 31.0833C27.851 31.056 27.9603 31.0409 28.0702 31.0383V31.0394ZM27.9366 33.3043C28.2166 33.3043 28.4126 33.2231 28.5246 33.0607C28.6366 32.8983 28.6926 32.6754 28.6926 32.3921C28.6926 32.102 28.6336 31.8809 28.5156 31.7287C28.3977 31.5766 28.2225 31.5006 27.9901 31.5008C27.8888 31.5015 27.788 31.5145 27.6899 31.5395C27.5917 31.5632 27.4974 31.6009 27.4099 31.6515V33.0515C27.409 33.2195 27.5845 33.3034 27.9366 33.3032V33.3043ZM29.849 30.1893H30.4236V30.6818H29.849V30.1893ZM29.8644 31.1119H30.4031L30.4082 33.6983H29.8644V31.1119ZM31.1664 33.6983V30.1106H31.7001V33.6971L31.1664 33.6983ZM33.5047 31.0321C33.9049 31.0321 34.1981 31.1628 34.3844 31.4241C34.5707 31.6854 34.6622 32.0508 34.6588 32.5203H32.8523C32.8696 32.776 32.9443 32.9704 33.0763 33.1035C33.2083 33.2366 33.3955 33.3031 33.638 33.3029C33.9285 33.3032 34.2143 33.2301 34.469 33.0904V33.5983C34.2023 33.7168 33.8967 33.7761 33.5523 33.7761C33.1659 33.7761 32.8624 33.6578 32.6417 33.4211C32.4211 33.1844 32.3109 32.8484 32.311 32.4131C32.311 31.9673 32.4153 31.6262 32.6238 31.3897C32.8323 31.1532 33.1259 31.034 33.5047 31.0321ZM33.4893 31.4801C33.308 31.4801 33.1662 31.5285 33.0637 31.6254C32.9612 31.7223 32.8945 31.8864 32.8635 32.1177H34.11C34.086 31.8965 34.0244 31.735 33.9252 31.6333C33.8261 31.5315 33.6808 31.4805 33.4893 31.4801ZM28.3443 10.157C27.7501 10.0101 27.2928 9.93652 26.9723 9.93633C24.5814 9.93633 22.6429 11.8683 22.6429 14.2509C22.6429 16.6334 24.5822 18.5657 26.9723 18.5657C29.3624 18.5657 31.3019 16.6337 31.3019 14.2509C31.3021 13.9028 31.2602 13.5559 31.177 13.2179L34.6191 12.2909C34.8979 13.3509 34.9506 14.4577 34.7738 15.5394C34.597 16.6211 34.1947 17.6535 33.5929 18.5696L27.8932 29.1365H22.613L26.365 22.2205C26.3854 22.1824 26.3252 22.0984 26.2748 22.0939C22.2655 21.7299 19.125 18.3699 19.125 14.2794C19.125 9.94529 22.6502 6.43213 26.9992 6.43213C27.7953 6.43126 28.5869 6.55087 29.3472 6.78689L28.3443 10.157Z" fill="white"/>
<path d="M26.9464 16.6237C28.2569 16.6237 29.3194 15.5613 29.3194 14.2507C29.3194 12.9401 28.2569 11.8777 26.9464 11.8777C25.6358 11.8777 24.5734 12.9401 24.5734 14.2507C24.5734 15.5613 25.6358 16.6237 26.9464 16.6237Z" fill="#D6E806"/>
<path d="M31.0449 12.6328C30.6338 11.6037 29.8414 10.7729 28.8329 10.3135M32.5552 11.9854C31.9746 10.5581 30.8767 9.40248 29.4811 8.74946M34.0115 11.5002C33.2719 9.61852 31.8176 8.1061 29.9663 7.29346" stroke="#D6E806" stroke-width="0.751217" stroke-linecap="round"/>
</svg>
