<svg width="54" height="40" viewBox="0 0 54 40" fill="none" xmlns="http://www.w3.org/2000/svg">
<rect width="54" height="40" rx="7" fill="#FF0000"/>
<g clip-path="url(#clip0_218_873)">
<path d="M28.731 6.0614C28.6779 6.07644 28.5529 6.09148 28.4545 6.09524C28.0605 6.10276 26.7878 6.42241 26.3257 6.62549C26.284 6.64429 26.1666 6.69318 26.0605 6.73454C25.784 6.83984 25.0529 7.18582 24.9393 7.26855C24.8863 7.3024 24.7992 7.34752 24.7423 7.3588C24.6855 7.37385 24.6401 7.40017 24.6401 7.41521C24.6401 7.43026 24.6098 7.45282 24.5757 7.46786C24.5378 7.47914 24.4582 7.52427 24.3938 7.56564C24.3332 7.607 24.2423 7.65589 24.1931 7.67846C24.1438 7.69726 24.0492 7.75743 23.981 7.81008C23.9128 7.86273 23.8446 7.90409 23.8332 7.90409C23.7461 7.90409 22.5264 8.78407 22.1817 9.09244C21.9014 9.3444 21.3825 9.89345 21.3825 9.93858C21.3825 9.94986 21.3484 10.0025 21.3029 10.0514C21.1893 10.1793 20.8484 10.7133 20.7499 10.9126C20.7082 11.0066 20.6249 11.1721 20.5719 11.2849C20.3863 11.6609 20.3105 12.0708 20.3295 12.5484C20.3522 13.0185 20.4582 13.263 20.7802 13.5864C21.1173 13.9211 21.4772 14.0677 22.0454 14.0978C22.4355 14.1166 22.7158 14.0865 23.106 13.9775C23.231 13.9436 23.3976 13.9023 23.4772 13.8797C23.5567 13.8609 23.6476 13.8308 23.6855 13.8082C23.7726 13.7631 24.2613 13.545 24.284 13.545C24.3522 13.545 25.1514 13.0599 25.8901 12.571C26.3787 12.2476 26.8067 11.9655 26.8446 11.9467C26.8787 11.9242 27.1098 11.7888 27.356 11.6421C27.6022 11.4992 27.9052 11.3262 28.0302 11.2623C28.1552 11.1984 28.3332 11.1044 28.4279 11.0555C28.5226 11.0104 28.7007 10.9276 28.8257 10.8825C28.9507 10.8336 29.106 10.7697 29.1666 10.7434C29.231 10.717 29.3219 10.6757 29.3749 10.6531C29.5226 10.5929 29.856 10.5328 30.1817 10.5102C30.8863 10.4651 31.3787 10.7734 31.6325 11.4203C31.6931 11.5744 31.7045 11.7023 31.7045 12.1536C31.7045 12.7026 31.6552 13.0035 31.5075 13.357C31.4772 13.4284 31.4355 13.53 31.4128 13.5826C31.2234 14.0339 30.8332 14.6807 30.3863 15.2674C29.962 15.8315 29.0492 16.7678 28.4469 17.2605C28.2385 17.4335 28.0075 17.6215 27.9355 17.6817C27.7764 17.8133 27.5908 17.9449 27.3863 18.0803C27.3029 18.1329 27.1666 18.2232 27.0832 18.2834C26.8484 18.4413 26.2234 18.7722 25.8711 18.9227C25.7688 18.9678 25.6287 19.028 25.5605 19.0581C25.4961 19.0881 25.409 19.1107 25.3673 19.1107C25.3295 19.1107 25.2423 19.1295 25.1742 19.1521C24.9279 19.2386 24.6779 19.0731 24.6779 18.8211C24.6779 18.5128 24.8257 18.3172 25.7575 17.3996C26.7651 16.4068 26.8749 16.2602 26.8749 15.8841C26.8749 15.4968 26.6893 15.2335 26.2726 15.0229C26.0908 14.9289 26.0226 14.9176 25.7045 14.9176C25.3332 14.9176 25.1173 14.9703 24.8484 15.132C24.7878 15.1696 24.6931 15.2185 24.6401 15.2448C24.587 15.2711 24.5378 15.3012 24.5264 15.3125C24.5151 15.3238 24.4393 15.3802 24.356 15.4441C24.1552 15.5945 23.8029 15.9518 23.6022 16.2113C23.462 16.3918 23.3598 16.561 23.1211 17.0048C22.9242 17.3733 22.7461 18.0577 22.7461 18.4564C22.7461 19.2649 23.1704 19.9117 23.8257 20.096C24.0226 20.1524 24.8257 20.1524 25.1022 20.0997C25.3749 20.0433 26.087 19.8252 26.1325 19.7838C26.1552 19.765 26.1931 19.75 26.2234 19.75C26.3219 19.75 27.4469 19.1821 27.8332 18.9339C27.9204 18.8775 28.0188 18.8136 28.0567 18.791C28.0908 18.7722 28.2688 18.6632 28.4545 18.5504C28.6363 18.4376 28.7954 18.3323 28.8067 18.321C28.8181 18.3059 28.9469 18.2119 29.0908 18.1141C29.2385 18.0126 29.409 17.896 29.4696 17.8547C29.534 17.8095 29.712 17.6741 29.8673 17.55C30.8522 16.7716 31.7234 15.9405 32.231 15.2937C32.3143 15.1921 32.3901 15.0981 32.4014 15.0869C32.4317 15.0643 32.6893 14.6957 32.8673 14.4175C32.9469 14.3009 33.0681 14.0941 33.1363 13.9587C33.2082 13.8233 33.3067 13.639 33.356 13.545C33.4052 13.451 33.5113 13.2065 33.5946 12.9997C33.6742 12.7929 33.7537 12.5898 33.7688 12.5484C33.8749 12.2814 34.0378 11.5932 34.1098 11.1006C34.1893 10.544 34.1287 9.63021 33.9734 9.12629C33.909 8.91946 33.8938 8.88185 33.7537 8.581C33.4507 7.93418 32.9658 7.34752 32.409 6.96394C32.3332 6.91129 32.2385 6.83984 32.1969 6.79847C32.0605 6.67814 31.3673 6.36977 30.962 6.25319C30.7461 6.18926 30.4242 6.12157 30.2461 6.09524C29.837 6.04259 28.856 6.01627 28.731 6.0614ZM39.712 24.6576C39.7007 24.6651 39.5264 24.699 39.3181 24.7328C39.1098 24.7629 38.7689 24.8193 38.5605 24.8569L38.1817 24.9208V28.3806C38.1817 32.1374 38.1742 31.9795 38.3976 32.4496C38.4734 32.6113 38.5795 32.7504 38.7423 32.8971C39.1438 33.2619 39.5188 33.3747 40.3181 33.3784C40.9999 33.3784 40.9734 33.4048 40.9582 32.7805L40.9469 32.3292L40.6552 32.3029C40.1363 32.2578 39.8863 32.0509 39.8295 31.6222C39.8143 31.4944 39.8029 29.8848 39.8067 28.0497C39.8105 24.8719 39.8029 24.5673 39.712 24.6576ZM29.2234 24.7328C28.3825 24.8569 28.1022 24.9096 28.0681 24.9509C28.0416 24.981 28.0378 26.1806 28.0492 28.4746C28.0681 31.6786 28.0757 31.9682 28.1363 32.1224C28.2802 32.4872 28.356 32.615 28.5492 32.8068C28.9469 33.2017 29.4545 33.3634 30.2878 33.3634C30.7499 33.3634 30.8143 33.3559 30.8446 33.2957C30.8825 33.2243 30.9014 32.5699 30.8711 32.4195C30.8484 32.3255 30.8332 32.3217 30.5492 32.2991C30.1893 32.2766 29.9772 32.1562 29.8295 31.8968L29.7348 31.7275L29.7234 29.7795C29.7158 28.3279 29.7234 27.8165 29.7575 27.7751C29.7916 27.7338 29.9204 27.7225 30.3257 27.7225C30.9507 27.7225 30.8976 27.7827 30.8825 27.0644L30.8711 26.5755L30.3408 26.5567C30.0492 26.5454 29.7878 26.5229 29.7651 26.5078C29.7272 26.4852 29.7158 26.2559 29.7158 25.5752V24.6764L29.6325 24.6802C29.5832 24.6839 29.4014 24.7065 29.2234 24.7328ZM16.0984 26.4288C15.8143 26.4552 15.1325 26.6169 14.9242 26.7071C14.8825 26.7259 14.8067 26.7523 14.7537 26.7673C14.587 26.8124 14.034 27.0869 14.034 27.1246C14.034 27.1434 14.0681 27.2298 14.106 27.3201C14.356 27.8654 14.4507 28.0609 14.4696 28.0609C14.481 28.0609 14.5188 28.0459 14.5567 28.0271C14.7499 27.9293 14.9848 27.8353 15.1704 27.7789C15.284 27.7451 15.4204 27.6999 15.4734 27.6811C15.6855 27.6059 16.2499 27.5683 16.5113 27.6097C17.0264 27.6924 17.2158 27.9293 17.2461 28.5348C17.2613 28.8695 17.2613 28.877 17.1742 28.8996C17.1249 28.9146 16.7764 28.9259 16.4014 28.9259C15.4999 28.9259 15.2234 28.9785 14.6401 29.2606C14.1401 29.5013 13.7688 29.9563 13.5908 30.5429C13.4999 30.8551 13.5113 31.438 13.6135 31.7463C13.9545 32.7692 14.7651 33.3672 15.8938 33.4273C16.9204 33.4837 17.9772 33.1791 18.6552 32.6376L18.9014 32.4383L18.9128 30.4489C18.9242 28.1437 18.9204 28.0647 18.6401 27.5006C18.5151 27.2449 18.0946 26.8387 17.8332 26.7259C17.712 26.6695 17.5795 26.6131 17.5378 26.5943C17.2537 26.4702 16.534 26.3875 16.0984 26.4288ZM17.2158 30.0541C17.2385 30.0841 17.2537 30.5317 17.2537 31.0732C17.2537 32.1412 17.2688 32.0735 16.9885 32.2202C16.8825 32.2766 16.7651 32.2879 16.3976 32.2916H15.9393L15.7499 32.1638C15.6476 32.0961 15.5264 31.9833 15.4848 31.9193C15.2045 31.5132 15.2234 30.7874 15.5188 30.4301C15.606 30.3211 15.9393 30.0917 15.9999 30.0917C16.0378 30.0917 16.0795 30.0766 16.1022 30.0578C16.1552 30.0014 16.3295 29.9864 16.7726 29.9939C17.0908 29.9977 17.1893 30.0089 17.2158 30.0541ZM25.5492 26.5191C24.7954 26.6958 24.1931 27.0155 23.587 27.5645L23.4279 27.7074V33.2619C23.4279 33.322 23.4848 33.3258 24.2537 33.3183L25.0757 33.307L25.087 30.6858L25.0946 28.0685L25.2385 27.9556C25.409 27.8203 25.4923 27.7789 25.712 27.7037C25.9734 27.6172 26.3825 27.5758 26.6893 27.6097C26.8408 27.6247 26.9848 27.6322 27.0075 27.621C27.034 27.6134 27.1022 27.4856 27.1628 27.3351C27.2196 27.1847 27.3105 26.9892 27.356 26.8989C27.481 26.662 27.4696 26.6018 27.3029 26.5642C27.2234 26.5454 27.0795 26.5116 26.9772 26.489C26.7082 26.4213 25.8863 26.4401 25.5492 26.5191ZM33.7878 26.5266C33.6628 26.5454 33.5454 26.5793 33.5264 26.5981C33.5037 26.6169 33.4658 26.6319 33.4355 26.6319C33.4052 26.6319 33.2688 26.6846 33.1363 26.7523C32.8446 26.8952 32.3976 27.3051 32.2082 27.6097C32.0416 27.8767 31.8484 28.2753 31.8181 28.4182C31.8029 28.4784 31.7802 28.5649 31.7613 28.6062C31.7461 28.6476 31.7007 28.8093 31.6628 28.9635C31.5605 29.3696 31.5605 30.6708 31.659 31.0506C31.7499 31.4004 31.9545 31.9344 31.9923 31.9344C32.0113 31.9344 32.0264 31.9532 32.0264 31.9757C32.0264 32.1186 32.4772 32.6865 32.7954 32.9422C32.9355 33.055 33.2499 33.2167 33.4848 33.2957C33.7385 33.3822 34.2992 33.4762 34.5492 33.4762C35.087 33.4762 36.0567 33.2468 36.3787 33.0437C36.4545 32.9986 36.5567 32.946 36.6098 32.9309C36.7234 32.8971 36.9734 32.7429 37.0037 32.6902C37.0378 32.6376 36.6135 31.7839 36.5567 31.7839C36.5302 31.7839 36.462 31.8178 36.409 31.8592C36.356 31.9005 36.2916 31.9344 36.2613 31.9344C36.2348 31.9344 36.1779 31.9569 36.1363 31.987C36.0946 32.0133 35.8976 32.0923 35.7007 32.16C35.3635 32.2766 35.3067 32.2841 34.8105 32.2879C34.3408 32.2879 34.2613 32.2803 34.1098 32.2089C33.5795 31.9569 33.2764 31.3214 33.2764 30.464C33.2764 30.2797 33.2802 30.1255 33.2878 30.1218C33.2916 30.1142 34.1325 30.1029 35.1514 30.0917L37.0075 30.0729L36.9961 29.6968C36.9734 28.9597 36.7764 27.9669 36.606 27.7413C36.5908 27.7187 36.5378 27.6247 36.4885 27.5307C36.284 27.1283 35.8522 26.7823 35.3408 26.6131C34.9658 26.4852 34.2802 26.4476 33.7878 26.5266ZM34.6022 27.7225C34.7613 27.7639 35.0946 28.0309 35.0946 28.1136C35.0946 28.1362 35.1211 28.2038 35.1514 28.2603C35.2385 28.4295 35.3067 28.986 35.2461 29.0575C35.2082 29.1064 35.0605 29.1139 34.2954 29.1139H33.3901L33.3673 29.0199C33.3181 28.8281 33.4507 28.3129 33.6022 28.1136C33.7688 27.8917 33.9166 27.7789 34.1363 27.715C34.2575 27.6811 34.3749 27.6586 34.4014 27.6661C34.4242 27.6736 34.5151 27.6999 34.6022 27.7225ZM20.7385 23.8791C20.4507 24.0258 20.3635 24.0973 20.2385 24.2815C20.1173 24.4658 20.1135 24.4808 20.1135 24.8644V25.2631L20.2575 25.4586C20.4279 25.688 20.5416 25.7707 20.7916 25.8572C21.1287 25.9663 21.4204 25.9249 21.7575 25.7143C22.1628 25.4586 22.3029 24.8043 22.0567 24.3229C21.9696 24.1537 21.8938 24.0747 21.6666 23.9318C21.462 23.8002 20.9431 23.7701 20.7385 23.8791ZM21.6666 26.5943C21.606 26.6131 21.4355 26.647 21.2878 26.6658C21.1438 26.6846 20.8787 26.7222 20.7007 26.7485C20.5226 26.7711 20.3673 26.8049 20.3484 26.8162C20.3143 26.8463 20.3105 33.2355 20.3408 33.2919C20.356 33.3107 20.6931 33.3258 21.1363 33.3258C21.909 33.3258 21.9128 33.3258 21.9317 33.2393C21.9431 33.1942 21.9469 31.6749 21.9431 29.866C21.9317 26.6056 21.9317 26.5755 21.856 26.568C21.8143 26.5642 21.731 26.5755 21.6666 26.5943Z" fill="white"/>
</g>
<defs>
<clipPath id="clip0_218_873">
<rect width="27.5" height="27.5" fill="white" transform="translate(13.5 6)"/>
</clipPath>
</defs>
</svg>
